<svg xmlns="http://www.w3.org/2000/svg" version="1.1" xmlns:xlink="http://www.w3.org/1999/xlink" xmlns:svgjs="http://svgjs.dev/svgjs" width="2000" height="1500" viewBox="0 0 2000 1500"><rect width="2000" height="1500" fill="#2e2b2a"></rect><g transform="matrix(0.75,0,0,0.75,247.53743386083568,460.48832307769646)"><svg viewBox="0 0 126 49" data-background-color="#2e2b2a" preserveAspectRatio="xMidYMid meet" height="777" width="2000" xmlns="http://www.w3.org/2000/svg" xmlns:xlink="http://www.w3.org/1999/xlink"><g id="tight-bounds" transform="matrix(1,0,0,1,0.20685555568979908,-0.15667581434084354)"><svg viewBox="0 0 125.58628888862035 49.3133516286817" height="49.3133516286817" width="125.58628888862035"><g><svg viewBox="0 0 125.58628888862035 49.3133516286817" height="49.3133516286817" width="125.58628888862035"><g><svg viewBox="0 0 125.58628888862035 49.3133516286817" height="49.3133516286817" width="125.58628888862035"><g id="textblocktransform"><svg viewBox="0 0 125.58628888862035 49.3133516286817" height="49.3133516286817" width="125.58628888862035" id="textblock"><g><svg viewBox="0 0 125.58628888862035 49.3133516286817" height="49.3133516286817" width="125.58628888862035"><g><svg><g></g><g></g></svg></g><g><svg><g></g><g><svg></svg></g></svg></g><g id="text-0"><svg viewBox="0 0 125.58628888862035 49.3133516286817" height="49.3133516286817" width="125.58628888862035"><g><svg xmlns="http://www.w3.org/2000/svg" xmlns:xlink="http://www.w3.org/1999/xlink" version="1.1" x="0" y="0" viewBox="5.599999999999992 14.8 88.69999999999999 69.22908396835325" enable-background="new 0 0 100 100" xml:space="preserve" height="49.3133516286817" width="63.1829" class="icon-cg-0" data-fill-palette-color="accent" id="cg-0"><g fill="#ffffff" data-fill-palette-color="accent"><path d="M50.2 84c-6.7 0-13.4 0-20.1 0-0.2 0-0.4 0-0.7 0-0.5-0.1-1.4 0.4-1.4-0.7 0-0.9 0.8-0.6 1.3-0.6 0.6-0.1 1.2 0 1.8 0 3.9 0 5.7-1.3 6.9-5 0.3-0.8 0.5-1.7 0.5-2.6 0-0.8 0.4-1.2 1.2-1.2 7.2 0 14.5 0 21.7 0 0.7 0 1 0.3 1.1 0.9 0.3 1.7 0.6 3.3 1.5 4.9 1 1.9 2.6 2.8 4.7 2.9 1 0 1.9 0 2.9 0 0.5 0 0.9 0 0.9 0.7 0 0.6-0.4 0.7-0.9 0.7-0.8 0-1.6 0-2.4 0C62.9 84 56.6 84 50.2 84z" fill="#ffffff" data-fill-palette-color="accent"></path><path d="M49.9 14.8c13.9 0 27.9 0 41.8 0 2 0 2.6 0.6 2.6 2.6 0 17.5 0 35 0 52.5 0 2.2-0.6 2.8-2.8 2.8-27.7 0-55.4 0-83.1 0-2.2 0-2.8-0.6-2.8-2.8 0-17.5 0-35 0-52.5 0-2.2 0.4-2.6 2.6-2.6C22.1 14.8 36 14.8 49.9 14.8zM49.7 19c-12.9 0-25.9 0-38.8 0-1.2 0-1.6 0.3-1.6 1.6 0 13.3 0 26.6 0 39.9 0 1.3 0.4 1.6 1.6 1.6 25.8 0 51.6 0 77.3 0 1.2 0 1.6-0.3 1.6-1.6 0-13.3 0-26.6 0-39.9 0-1.3-0.4-1.6-1.6-1.6C75.4 19 62.5 19 49.7 19z" fill="#ffffff" data-fill-palette-color="accent"></path><path d="M46.3 53.5c-2.4 0-2.4 0-1.8-2.4 2.1-7.3 4.2-14.5 6.3-21.8 0.3-1 0.6-1.4 1.8-1.4C56 28 56 28 55 31.3c-2 6.7-3.9 13.4-5.9 20.1C48.5 53.5 48.5 53.5 46.3 53.5z" fill="#ffffff" data-fill-palette-color="accent"></path><path d="M34.7 41c2.3 0.9 4.5 1.9 6.8 2.7 1.1 0.4 1.6 0.9 1.5 2.1-0.1 2.6 0 2.6-2.4 1.6-3.4-1.4-6.8-2.8-10.2-4.2-1.9-0.8-1.9-0.8-1.9-2.8 0-0.7 0.2-1.1 0.9-1.4 4.2-1.7 8.4-3.5 12.6-5.2 0.7-0.3 0.9-0.2 1 0.6 0.2 3 0.2 3-2.5 4.1-1.9 0.7-3.7 1.5-5.6 2.3C34.8 40.7 34.8 40.8 34.7 41z" fill="#ffffff" data-fill-palette-color="accent"></path><path d="M65.3 40.9c-2.1-0.9-4-1.7-5.8-2.4-0.1 0-0.2 0-0.3-0.1-2.2-0.9-2.8-2-2.3-4.4 0.2-0.8 0.5-0.4 0.9-0.2 2.5 1 5 2.1 7.5 3.1 1.6 0.7 3.2 1.4 4.8 2 1.2 0.4 0.9 1.4 1 2.2 0.1 0.8-0.1 1.3-1 1.7-4 1.6-7.9 3.3-11.9 4.9-1.3 0.6-1.2 0.5-1.4-0.9-0.2-1.8 0.3-2.9 2.2-3.4C61.1 42.8 63 41.9 65.3 40.9z" fill="#ffffff" data-fill-palette-color="accent"></path></g></svg></g><g transform="matrix(1,0,0,1,78.95949999999999,0)"><svg width="46.62678888862035" viewBox="0.25 -34.45 39.05 41.300000000000004" height="49.3133516286817" data-palette-color="#ffffff"><path d="M10.5-34.45L10.5-4.8Q10.5 0.3 8.28 2.85 6.05 5.4 1.5 6.85L1.5 6.85 0.25 3.4Q2.55 2.5 3.7 1.45 4.85 0.4 5.3-1.1 5.75-2.6 5.75-5L5.75-5 5.75-34.45 10.5-34.45ZM20.25-34.45L38.9-34.45 38.35-30.65 25-30.65 25-19.4 36.6-19.4 36.6-15.6 25-15.6 25-3.8 39.3-3.8 39.3 0 20.25 0 20.25-34.45Z" opacity="1" transform="matrix(1,0,0,1,0,0)" fill="#ffffff" class="wordmark-text-0" data-fill-palette-color="primary"></path></svg></g></svg></g></svg></g></svg></g></svg></g></svg></g><defs></defs></svg><rect width="125.58628888862035" height="49.3133516286817" fill="none" stroke="none" visibility="hidden"></rect></g></svg></g></svg>