<?xml version="1.0" encoding="iso-8859-1"?>
<!-- Uploaded to: SVG Repo, www.svgrepo.com, Generator: SVG Repo Mixer Tools -->
<svg version="1.1" id="Layer_1" xmlns="http://www.w3.org/2000/svg" xmlns:xlink="http://www.w3.org/1999/xlink" 
	 viewBox="0 0 392.921 392.921" xml:space="preserve">
<g>
	<rect x="132.105" y="21.915" style="fill:#FFC10D;" width="128.582" height="31.418"/>
	<rect x="21.947" y="187.281" style="fill:#FFC10D;" width="45.253" height="45.253"/>
	<rect x="325.657" y="187.281" style="fill:#FFC10D;" width="45.253" height="45.253"/>
</g>
<g>
	<rect x="173.802" y="187.281" style="fill:#56ACE0;" width="45.253" height="45.253"/>
	<rect x="21.947" y="325.624" style="fill:#56ACE0;" width="45.253" height="45.253"/>
	<rect x="325.657" y="325.624" style="fill:#56ACE0;" width="45.253" height="45.253"/>
</g>
<rect x="173.802" y="325.624" style="fill:#FFC10D;" width="45.253" height="45.253"/>
<path style="fill:#194F82;" d="M381.834,254.255c6.012,0,10.925-4.848,10.925-10.925v-67.038c0-6.012-4.848-10.925-10.925-10.925
	h-22.626v-38.853c0-6.012-4.848-10.925-10.925-10.925H246.141V75.184h25.471c6.012,0,10.925-4.848,10.925-10.925V10.925
	C282.537,4.913,277.689,0,271.612,0H121.244c-6.012,0-10.925,4.848-10.925,10.925v53.269c0,6.012,4.848,10.925,10.925,10.925h21.721
	v40.469H40.824c-6.012,0-10.925,4.848-10.925,10.925v38.853H11.022c-6.012,0.065-10.925,5.042-10.925,10.99v67.103
	c0,6.012,4.848,10.925,10.925,10.925h22.626v49.519H11.022c-6.012,0-10.925,4.848-10.925,10.925v67.103
	c0,6.012,4.848,10.925,10.925,10.925h67.103c6.012,0,10.925-4.848,10.925-10.925v-67.232c0-6.012-4.848-10.925-10.925-10.925H55.499
	v-49.519h22.626c6.012,0,10.925-4.848,10.925-10.925v-67.038c0-6.012-4.848-10.925-10.925-10.925H51.75v-27.992h102.141
	c6.012,0,10.925-4.848,10.925-10.925V75.119h20.687v90.246h-22.626c-6.012,0-10.925,4.848-10.925,10.925v67.103
	c0,6.012,4.848,10.925,10.925,10.925h22.626v49.455h-22.626c-6.012,0-10.925,4.848-10.925,10.925v67.103
	c0,6.012,4.848,10.925,10.925,10.925h67.103c6.012,0,10.925-4.848,10.925-10.925v-67.103c0-6.012-4.848-10.925-10.925-10.925
	h-22.626v-49.519h22.626c6.012,0,10.925-4.848,10.925-10.925v-67.038c0-6.012-4.848-10.925-10.925-10.925h-22.626V75.248h17.002
	v51.394c0,6.012,4.848,10.925,10.925,10.925h102.141v27.992h-22.626c-6.012,0-10.925,4.848-10.925,10.925v67.103
	c0,6.012,4.848,10.925,10.925,10.925h22.626v49.455h-22.626c-6.012,0-10.925,4.848-10.925,10.925v67.103
	c0,6.012,4.848,10.925,10.925,10.925h67.103c6.012,0,10.925-4.848,10.925-10.925v-67.297c0-6.012-4.848-10.925-10.925-10.925
	h-22.626v-49.519L381.834,254.255L381.834,254.255z M67.2,232.469H21.947v-45.253H67.2V232.469z M67.2,370.877H21.947v-45.253H67.2
	V370.877z M132.17,21.915h128.582v31.418H132.17V21.915z M219.055,232.469h-45.253v-45.253h45.253V232.469z M219.055,370.877
	h-45.253v-45.253h45.253V370.877z M325.657,187.281h45.253v45.253h-45.253L325.657,187.281L325.657,187.281z M370.909,370.877
	h-45.253v-45.253h45.253V370.877z"/>
</svg>