<?xml version="1.0" encoding="iso-8859-1"?>
<!-- Uploaded to: SVG Repo, www.svgrepo.com, Generator: SVG Repo Mixer Tools -->
<svg height="800px" width="800px" version="1.1" id="Layer_1" xmlns="http://www.w3.org/2000/svg" xmlns:xlink="http://www.w3.org/1999/xlink" 
	 viewBox="0 0 512 512" xml:space="preserve">
<g>
	<path style="fill:#B1BBBC;" d="M70.621,79.448v52.966H413.44c15.431,0,27.939,12.509,27.939,27.939v42.681v61.352
		c26.112,13.03,44.138,39.945,44.138,71.062v8.678C500.259,343.358,512,331.264,512,316.337V79.448H70.621z"/>
	<path style="fill:#E8EDEE;" d="M308.966,379.586h17.655v-44.138c0-43.811,35.646-79.448,79.448-79.448
		c12.694,0,24.655,3.063,35.31,8.386v-61.352H0v254.543c0,15.431,12.509,27.939,27.939,27.939h281.026V379.586z"/>
	<path style="fill:#7383BF;" d="M158.897,256H44.138c-4.873,0-8.828-3.955-8.828-8.828c0-4.873,3.955-8.828,8.828-8.828h114.759
		c4.873,0,8.828,3.955,8.828,8.828C167.724,252.045,163.769,256,158.897,256"/>
	<path style="fill:#DD342E;" d="M282.483,256h-88.276c-4.873,0-8.828-3.955-8.828-8.828c0-4.873,3.955-8.828,8.828-8.828h88.276
		c4.873,0,8.828,3.955,8.828,8.828C291.31,252.045,287.356,256,282.483,256"/>
	<path style="fill:#ECBA16;" d="M344.276,291.31h-97.103c-4.873,0-8.828-3.955-8.828-8.828s3.955-8.828,8.828-8.828h97.103
		c4.873,0,8.828,3.955,8.828,8.828S349.149,291.31,344.276,291.31"/>
	<path style="fill:#42B05C;" d="M211.862,291.31H88.276c-4.873,0-8.828-3.955-8.828-8.828s3.955-8.828,8.828-8.828h123.586
		c4.873,0,8.828,3.955,8.828,8.828S216.735,291.31,211.862,291.31"/>
	<path style="fill:#DD342E;" d="M52.966,291.31h-8.828c-4.873,0-8.828-3.955-8.828-8.828s3.955-8.828,8.828-8.828h8.828
		c4.873,0,8.828,3.955,8.828,8.828S57.838,291.31,52.966,291.31"/>
	<path style="fill:#7383BF;" d="M123.586,326.621H44.138c-4.873,0-8.828-3.955-8.828-8.828c0-4.873,3.955-8.828,8.828-8.828h79.448
		c4.873,0,8.828,3.955,8.828,8.828C132.414,322.666,128.459,326.621,123.586,326.621"/>
	<path style="fill:#DD342E;" d="M176.552,326.621h-17.655c-4.873,0-8.828-3.955-8.828-8.828c0-4.873,3.955-8.828,8.828-8.828h17.655
		c4.873,0,8.828,3.955,8.828,8.828C185.379,322.666,181.425,326.621,176.552,326.621"/>
	<path style="fill:#42B05C;" d="M326.621,326.621H211.862c-4.873,0-8.828-3.955-8.828-8.828c0-4.873,3.955-8.828,8.828-8.828
		h114.759c4.873,0,8.828,3.955,8.828,8.828C335.448,322.666,331.493,326.621,326.621,326.621"/>
	<path style="fill:#ECBA16;" d="M158.897,361.931H44.138c-4.873,0-8.828-3.955-8.828-8.828c0-4.873,3.955-8.828,8.828-8.828h114.759
		c4.873,0,8.828,3.955,8.828,8.828C167.724,357.976,163.769,361.931,158.897,361.931"/>
	<path style="fill:#7383BF;" d="M264.828,361.931h-70.621c-4.873,0-8.828-3.955-8.828-8.828c0-4.873,3.955-8.828,8.828-8.828h70.621
		c4.873,0,8.828,3.955,8.828,8.828C273.655,357.976,269.7,361.931,264.828,361.931"/>
	<path style="fill:#ECBA16;" d="M273.655,397.241h-26.483c-4.873,0-8.828-3.955-8.828-8.828s3.955-8.828,8.828-8.828h26.483
		c4.873,0,8.828,3.955,8.828,8.828S278.528,397.241,273.655,397.241"/>
	<path style="fill:#DD342E;" d="M211.862,397.241H88.276c-4.873,0-8.828-3.955-8.828-8.828s3.955-8.828,8.828-8.828h123.586
		c4.873,0,8.828,3.955,8.828,8.828S216.735,397.241,211.862,397.241"/>
	<path style="fill:#42B05C;" d="M52.966,397.241h-8.828c-4.873,0-8.828-3.955-8.828-8.828s3.955-8.828,8.828-8.828h8.828
		c4.873,0,8.828,3.955,8.828,8.828S57.838,397.241,52.966,397.241"/>
	<path style="fill:#7383BF;" d="M158.897,432.552H44.138c-4.873,0-8.828-3.955-8.828-8.828c0-4.873,3.955-8.828,8.828-8.828h114.759
		c4.873,0,8.828,3.955,8.828,8.828C167.724,428.597,163.769,432.552,158.897,432.552"/>
	<path style="fill:#42B05C;" d="M264.828,432.552h-70.621c-4.873,0-8.828-3.955-8.828-8.828c0-4.873,3.955-8.828,8.828-8.828h70.621
		c4.873,0,8.828,3.955,8.828,8.828C273.655,428.597,269.7,432.552,264.828,432.552"/>
	<polygon style="fill:#F0C419;" points="308.966,503.172 503.172,503.172 503.172,379.586 308.966,379.586 	"/>
	<path style="fill:#5C6887;" d="M485.517,379.586h-35.31v-44.138c0-24.338-19.8-44.138-44.138-44.138s-44.138,19.8-44.138,44.138
		v44.138h-35.31v-44.138c0-43.811,35.646-79.448,79.448-79.448s79.448,35.637,79.448,79.448V379.586z"/>
	<g>
		<path style="fill:#546A79;" d="M441.379,203.034H0v-42.681c0-15.431,12.509-27.939,27.939-27.939H413.44
			c15.431,0,27.939,12.509,27.939,27.939V203.034z"/>
		<path style="fill:#546A79;" d="M512,79.448H70.621V36.767c0-15.431,12.509-27.939,27.939-27.939h385.501
			C499.491,8.828,512,21.336,512,36.767V79.448z"/>
	</g>
	<path style="fill:#ED7161;" d="M70.621,176.552H44.138c-4.873,0-8.828-3.955-8.828-8.828s3.955-8.828,8.828-8.828h26.483
		c4.873,0,8.828,3.955,8.828,8.828S75.494,176.552,70.621,176.552"/>
	<path style="fill:#42B05C;" d="M141.241,176.552h-26.483c-4.873,0-8.828-3.955-8.828-8.828s3.955-8.828,8.828-8.828h26.483
		c4.873,0,8.828,3.955,8.828,8.828S146.114,176.552,141.241,176.552"/>
	<path style="fill:#ED7161;" d="M141.241,52.966h-26.483c-4.873,0-8.828-3.955-8.828-8.828s3.955-8.828,8.828-8.828h26.483
		c4.873,0,8.828,3.955,8.828,8.828S146.114,52.966,141.241,52.966"/>
	<path style="fill:#42B05C;" d="M211.862,52.966h-26.483c-4.873,0-8.828-3.955-8.828-8.828s3.955-8.828,8.828-8.828h26.483
		c4.873,0,8.828,3.955,8.828,8.828S216.735,52.966,211.862,52.966"/>
	<g>
		<path style="fill:#FFFFFF;" d="M423.724,441.379h-35.31c-4.873,0-8.828-3.955-8.828-8.828s3.955-8.828,8.828-8.828h35.31
			c4.873,0,8.828,3.955,8.828,8.828S428.597,441.379,423.724,441.379"/>
		<path style="fill:#FFFFFF;" d="M406.069,467.862c-4.873,0-8.828-3.955-8.828-8.828v-26.483c0-4.873,3.955-8.828,8.828-8.828
			s8.828,3.955,8.828,8.828v26.483C414.897,463.907,410.942,467.862,406.069,467.862"/>
	</g>
</g>
</svg>